<svg width="35" height="36" viewBox="0 0 35 36" fill="none" xmlns="http://www.w3.org/2000/svg">
<path d="M28.0449 35.4802C26.5196 35.4802 24.377 34.9286 21.1685 33.1364C17.267 30.9489 14.2491 28.9293 10.3687 25.0597C6.62728 21.3214 4.80659 18.9011 2.25841 14.2651C-0.620299 9.03063 -0.129573 6.28685 0.418976 5.11417C1.07223 3.7126 2.03649 2.8743 3.28284 2.04226C3.99076 1.57853 4.73991 1.18102 5.5208 0.854748C5.59894 0.821154 5.67161 0.789123 5.73647 0.760216C6.12327 0.585995 6.70932 0.322711 7.45166 0.603964C7.94708 0.789904 8.38936 1.17038 9.08169 1.85398C10.5015 3.254 12.4417 6.372 13.1575 7.90327C13.6381 8.93531 13.9561 9.61657 13.9569 10.3806C13.9569 11.2752 13.5068 11.965 12.9606 12.7096C12.8582 12.8494 12.7567 12.983 12.6582 13.1127C12.0635 13.894 11.933 14.1198 12.019 14.5229C12.1933 15.333 13.4927 17.7448 15.6283 19.8753C17.7639 22.0058 20.1066 23.223 20.92 23.3964C21.3404 23.4863 21.571 23.3503 22.3774 22.7347C22.493 22.6464 22.6118 22.555 22.736 22.4636C23.569 21.8441 24.227 21.4058 25.1006 21.4058H25.1053C25.8656 21.4058 26.5165 21.7355 27.5948 22.2792C29.0014 22.9886 32.2138 24.9035 33.6226 26.3246C34.3079 27.0152 34.69 27.4558 34.8768 27.9504C35.1581 28.6949 34.8932 29.2785 34.7205 29.6692C34.6916 29.734 34.6596 29.8051 34.626 29.884C34.2971 30.6633 33.8971 31.4108 33.4312 32.1168C32.6006 33.359 31.759 34.3208 30.354 34.9747C29.6326 35.3159 28.843 35.4888 28.0449 35.4802Z" fill="url(#paint0_linear_114_232)"/>
<defs>
<linearGradient id="paint0_linear_114_232" x1="17.5" y1="1.39351" x2="17.5" y2="35.4805" gradientUnits="userSpaceOnUse">
<stop stop-color="white"/>
<stop offset="0.468626" stop-color="white" stop-opacity="0.85"/>
<stop offset="1" stop-color="white"/>
</linearGradient>
</defs>
</svg>
