<svg width="29" height="36" viewBox="0 0 29 36" fill="none" xmlns="http://www.w3.org/2000/svg">
<path fill-rule="evenodd" clip-rule="evenodd" d="M18.1141 0.933322C18.1141 0.813218 18.0664 0.698033 17.9815 0.613107C17.8966 0.52818 17.7814 0.480469 17.6613 0.480469H4.98139C3.66024 0.480469 2.39321 1.00529 1.45901 1.93948C0.524823 2.87368 0 4.14071 0 5.46186V30.8217C0 32.1428 0.524823 33.4098 1.45901 34.344C2.39321 35.2782 3.66024 35.8031 4.98139 35.8031H23.0955C24.4167 35.8031 25.6837 35.2782 26.6179 34.344C27.5521 33.4098 28.0769 32.1428 28.0769 30.8217V12.9738C28.0769 12.8537 28.0292 12.7385 27.9443 12.6536C27.8594 12.5687 27.7442 12.5209 27.6241 12.5209H19.4727C19.1124 12.5209 18.7668 12.3778 18.5121 12.123C18.2573 11.8682 18.1141 11.5227 18.1141 11.1624V0.933322ZM19.4727 18.5946C19.833 18.5946 20.1786 18.7377 20.4334 18.9925C20.6881 19.2473 20.8313 19.5929 20.8313 19.9532C20.8313 20.3135 20.6881 20.659 20.4334 20.9138C20.1786 21.1686 19.833 21.3117 19.4727 21.3117H8.60422C8.24391 21.3117 7.89835 21.1686 7.64357 20.9138C7.38879 20.659 7.24566 20.3135 7.24566 19.9532C7.24566 19.5929 7.38879 19.2473 7.64357 18.9925C7.89835 18.7377 8.24391 18.5946 8.60422 18.5946H19.4727ZM19.4727 25.8403C19.833 25.8403 20.1786 25.9834 20.4334 26.2382C20.6881 26.493 20.8313 26.8385 20.8313 27.1988C20.8313 27.5591 20.6881 27.9047 20.4334 28.1595C20.1786 28.4143 19.833 28.5574 19.4727 28.5574H8.60422C8.24391 28.5574 7.89835 28.4143 7.64357 28.1595C7.38879 27.9047 7.24566 27.5591 7.24566 27.1988C7.24566 26.8385 7.38879 26.493 7.64357 26.2382C7.89835 25.9834 8.24391 25.8403 8.60422 25.8403H19.4727Z" fill="url(#paint0_linear_114_264)"/>
<path d="M20.8311 1.51926C20.8311 1.18596 21.1807 0.974027 21.4397 1.18234C21.6595 1.35986 21.8545 1.56636 22.0248 1.80184L27.4826 9.40435C27.6057 9.57825 27.4717 9.80286 27.258 9.80286H21.2839C21.1638 9.80286 21.0486 9.75515 20.9637 9.67022C20.8788 9.5853 20.8311 9.47011 20.8311 9.35001V1.51926Z" fill="url(#paint1_linear_114_264)"/>
<defs>
<linearGradient id="paint0_linear_114_264" x1="14.0385" y1="1.40193" x2="14.0385" y2="35.8031" gradientUnits="userSpaceOnUse">
<stop stop-color="white"/>
<stop offset="0.468626" stop-color="white" stop-opacity="0.85"/>
<stop offset="1" stop-color="white"/>
</linearGradient>
<linearGradient id="paint1_linear_114_264" x1="24.1803" y1="1.32665" x2="24.1803" y2="9.80286" gradientUnits="userSpaceOnUse">
<stop stop-color="white"/>
<stop offset="0.468626" stop-color="white" stop-opacity="0.85"/>
<stop offset="1" stop-color="white"/>
</linearGradient>
</defs>
</svg>
