<svg width="37" height="36" viewBox="0 0 37 36" fill="none" xmlns="http://www.w3.org/2000/svg">
<path fill-rule="evenodd" clip-rule="evenodd" d="M3.96429 0.480469C2.91289 0.480469 1.90456 0.879116 1.16111 1.58871C0.417665 2.29831 0 3.26073 0 4.26425L0 19.3994C0 20.4029 0.417665 21.3653 1.16111 22.0749C1.90456 22.7845 2.91289 23.1832 3.96429 23.1832H33.0357C34.0871 23.1832 35.0954 22.7845 35.8389 22.0749C36.5823 21.3653 37 20.4029 37 19.3994V4.26425C37 3.26073 36.5823 2.29831 35.8389 1.58871C35.0954 0.879116 34.0871 0.480469 33.0357 0.480469L3.96429 0.480469ZM20.1518 4.14822C20.1518 3.73008 19.9778 3.32907 19.668 3.03341C19.3582 2.73774 18.9381 2.57164 18.5 2.57164C18.0619 2.57164 17.6418 2.73774 17.332 3.03341C17.0222 3.32907 16.8482 3.73008 16.8482 4.14822V5.15723C15.8971 5.2636 15.0163 5.6883 14.3622 6.35589C13.7081 7.02348 13.3231 7.89074 13.2756 8.80363C13.228 9.71653 13.521 10.616 14.1025 11.3422C14.684 12.0684 15.5164 12.5743 16.4518 12.7702L19.6153 13.4286C19.87 13.4747 20.0971 13.6107 20.2514 13.8096C20.4057 14.0084 20.4758 14.2554 20.4478 14.5014C20.4198 14.7474 20.2957 14.9743 20.1003 15.1368C19.9049 15.2994 19.6524 15.3857 19.3933 15.3785H17.6067C17.393 15.3792 17.1843 15.3164 17.0096 15.1989C16.8349 15.0814 16.7027 14.915 16.6315 14.7226C16.4753 14.3418 16.1702 14.0338 15.7806 13.8636C15.391 13.6934 14.9473 13.6744 14.5433 13.8106C14.1393 13.9468 13.8065 14.2275 13.6152 14.5935C13.424 14.9594 13.3892 15.382 13.5182 15.772C14.0309 17.1594 15.2969 18.2062 16.8482 18.4686V19.5154C16.8482 19.9336 17.0222 20.3346 17.332 20.6302C17.6418 20.9259 18.0619 21.092 18.5 21.092C18.9381 21.092 19.3582 20.9259 19.668 20.6302C19.9778 20.3346 20.1518 19.9336 20.1518 19.5154V18.4661C21.1406 18.2988 22.0379 17.8093 22.6907 17.0809C23.3435 16.3526 23.7112 15.4306 23.7312 14.4724C23.7511 13.5141 23.4221 12.5789 22.8001 11.8264C22.1782 11.0739 21.302 10.5507 20.3209 10.3461L17.1574 9.68768C16.9771 9.65156 16.8174 9.55279 16.7091 9.41054C16.6008 9.26829 16.5518 9.09271 16.5716 8.91791C16.5914 8.7431 16.6785 8.58155 16.8161 8.46462C16.9536 8.34768 17.1318 8.28372 17.316 8.28515H19.3933C19.607 8.28447 19.8157 8.34723 19.9904 8.46473C20.1651 8.58223 20.2973 8.74867 20.3685 8.94101C20.4352 9.14268 20.5438 9.32948 20.6877 9.49028C20.8316 9.65109 21.008 9.7826 21.2063 9.87701C21.4046 9.97142 21.6207 10.0268 21.8419 10.0398C22.063 10.0528 22.2847 10.0232 22.4936 9.95282C22.7026 9.8824 22.8945 9.77257 23.0581 9.62987C23.2216 9.48718 23.3534 9.31453 23.4456 9.12222C23.5378 8.9299 23.5885 8.72185 23.5947 8.51044C23.601 8.29903 23.5625 8.08859 23.4818 7.89164C23.2265 7.20107 22.7836 6.58757 22.1986 6.11381C21.6135 5.64005 20.9072 5.323 20.1518 5.19506V4.14822ZM7.26786 9.93993C7.79355 9.93993 8.29772 10.1393 8.66944 10.4941C9.04117 10.8488 9.25 11.3301 9.25 11.8318C9.25 12.3336 9.04117 12.8148 8.66944 13.1696C8.29772 13.5244 7.79355 13.7237 7.26786 13.7237C6.74216 13.7237 6.23799 13.5244 5.86627 13.1696C5.49455 12.8148 5.28571 12.3336 5.28571 11.8318C5.28571 11.3301 5.49455 10.8488 5.86627 10.4941C6.23799 10.1393 6.74216 9.93993 7.26786 9.93993ZM29.7321 9.93993C30.2578 9.93993 30.762 10.1393 31.1337 10.4941C31.5055 10.8488 31.7143 11.3301 31.7143 11.8318C31.7143 12.3336 31.5055 12.8148 31.1337 13.1696C30.762 13.5244 30.2578 13.7237 29.7321 13.7237C29.2064 13.7237 28.7023 13.5244 28.3306 13.1696C27.9588 12.8148 27.75 12.3336 27.75 11.8318C27.75 11.3301 27.9588 10.8488 28.3306 10.4941C28.7023 10.1393 29.2064 9.93993 29.7321 9.93993ZM11.8929 25.3904C12.8046 25.3904 13.5446 26.0967 13.5446 26.967V32.012C13.5446 32.4301 13.3706 32.8311 13.0608 33.1268C12.7511 33.4225 12.3309 33.5886 11.8929 33.5886C11.4548 33.5886 11.0346 33.4225 10.7249 33.1268C10.4151 32.8311 10.2411 32.4301 10.2411 32.012V26.967C10.2411 26.0967 10.9811 25.3904 11.8929 25.3904ZM26.7589 26.967C26.7589 26.7599 26.7162 26.5549 26.6332 26.3636C26.5502 26.1723 26.4285 25.9985 26.2751 25.8521C26.1217 25.7057 25.9397 25.5896 25.7393 25.5104C25.5388 25.4312 25.3241 25.3904 25.1071 25.3904C24.8902 25.3904 24.6754 25.4312 24.475 25.5104C24.2746 25.5896 24.0925 25.7057 23.9392 25.8521C23.7858 25.9985 23.6641 26.1723 23.5811 26.3636C23.4981 26.5549 23.4554 26.7599 23.4554 26.967V32.012C23.4554 32.219 23.4981 32.424 23.5811 32.6153C23.6641 32.8066 23.7858 32.9804 23.9392 33.1268C24.0925 33.2732 24.2746 33.3893 24.475 33.4686C24.6754 33.5478 24.8902 33.5886 25.1071 33.5886C25.3241 33.5886 25.5388 33.5478 25.7393 33.4686C25.9397 33.3893 26.1217 33.2732 26.2751 33.1268C26.4285 32.9804 26.5502 32.8066 26.6332 32.6153C26.7162 32.424 26.7589 32.219 26.7589 32.012V26.967ZM20.1518 28.8588C20.1518 28.4407 19.9778 28.0397 19.668 27.744C19.3582 27.4484 18.9381 27.2823 18.5 27.2823C18.0619 27.2823 17.6418 27.4484 17.332 27.744C17.0222 28.0397 16.8482 28.4407 16.8482 28.8588V33.9039C16.8482 34.322 17.0222 34.723 17.332 35.0187C17.6418 35.3144 18.0619 35.4805 18.5 35.4805C18.9381 35.4805 19.3582 35.3144 19.668 35.0187C19.9778 34.723 20.1518 34.322 20.1518 33.9039V28.8588Z" fill="url(#paint0_linear_114_256)"/>
<defs>
<linearGradient id="paint0_linear_114_256" x1="18.5" y1="1.39351" x2="18.5" y2="35.4805" gradientUnits="userSpaceOnUse">
<stop stop-color="white"/>
<stop offset="0.468626" stop-color="white" stop-opacity="0.85"/>
<stop offset="1" stop-color="white"/>
</linearGradient>
</defs>
</svg>
