<svg width="85" height="80" viewBox="0 0 85 80" fill="none" xmlns="http://www.w3.org/2000/svg">
<path d="M68.6513 34.4046L54.8312 34.4773L34.2985 2.43814C33.9174 1.82969 33.3272 1.38202 32.6371 1.17788C31.947 0.973735 31.2036 1.02692 30.5444 1.32761C29.8851 1.62829 29.3546 2.15614 29.0509 2.8136C28.7471 3.47105 28.6907 4.21366 28.892 4.90416L36.7457 32.8169C36.8044 33.0245 36.8139 33.2434 36.7734 33.4564C36.733 33.6694 36.6437 33.8706 36.5126 34.0442C36.3815 34.2177 36.2122 34.359 36.018 34.4567C35.8238 34.5544 35.61 34.606 35.3935 34.6074L12.6212 34.7272L6.01536 24.8103C5.76215 24.4284 5.41779 24.1158 5.01289 23.9005C4.60798 23.6851 4.15506 23.5736 3.69434 23.5757L3.47613 23.5769C3.03262 23.5787 2.59477 23.6858 2.19871 23.8894C1.80265 24.0931 1.45973 24.3874 1.19824 24.7481C0.936754 25.1088 0.764186 25.5255 0.694777 25.964C0.625367 26.4024 0.661105 26.85 0.799041 27.2697L5.09993 40.3296L0.666758 53.4353C0.524541 53.8561 0.484018 54.3036 0.548522 54.7409C0.613027 55.1782 0.780715 55.5928 1.03778 55.9507C1.29485 56.3085 1.63395 56.5993 2.02715 56.7992C2.42036 56.9991 2.85644 57.1022 3.29948 57.1003L3.51769 57.0991C3.97841 57.0964 4.43253 56.9801 4.83973 56.7605C5.24693 56.5409 5.5946 56.2247 5.85185 55.8401L12.5625 45.8532L35.3349 45.7334C35.5514 45.7325 35.7646 45.7819 35.9578 45.8776C36.151 45.9733 36.3188 46.1128 36.4481 46.285C36.5773 46.4572 36.6645 46.6575 36.7027 46.87C36.741 47.0826 36.7292 47.3016 36.6683 47.5099L28.5199 75.5067C28.3113 76.1994 28.36 76.9414 28.6568 77.5957C28.9536 78.25 29.4786 78.7723 30.1347 79.0661C30.7908 79.3599 31.5337 79.4052 32.226 79.1938C32.9183 78.9824 33.5132 78.5285 33.9008 77.916L54.7723 45.6592L68.5924 45.5865C72.7832 45.5645 76.9327 44.8718 80.9122 43.5314L82.1677 43.1111C85.2393 42.0774 85.2621 37.7444 82.2013 36.7374L80.9502 36.3247C76.9864 35.0314 72.8342 34.3832 68.6513 34.4046Z" fill="url(#paint0_linear_124_2)"/>
<path d="M68.6513 34.4046L54.8312 34.4773L34.2985 2.43814C33.9174 1.82969 33.3272 1.38202 32.6371 1.17788C31.947 0.973735 31.2036 1.02692 30.5444 1.32761C29.8851 1.62829 29.3546 2.15614 29.0509 2.8136C28.7471 3.47105 28.6907 4.21366 28.892 4.90416L36.7457 32.8169C36.8044 33.0245 36.8139 33.2434 36.7734 33.4564C36.733 33.6694 36.6437 33.8706 36.5126 34.0442C36.3815 34.2177 36.2122 34.359 36.018 34.4567C35.8238 34.5544 35.61 34.606 35.3935 34.6074L12.6212 34.7272L6.01536 24.8103C5.76215 24.4284 5.41779 24.1158 5.01289 23.9005C4.60798 23.6851 4.15506 23.5736 3.69434 23.5757L3.47613 23.5769C3.03262 23.5787 2.59477 23.6858 2.19871 23.8894C1.80265 24.0931 1.45973 24.3874 1.19824 24.7481C0.936754 25.1088 0.764186 25.5255 0.694777 25.964C0.625367 26.4024 0.661105 26.85 0.799041 27.2697L5.09993 40.3296L0.666758 53.4353C0.524541 53.8561 0.484018 54.3036 0.548522 54.7409C0.613027 55.1782 0.780715 55.5928 1.03778 55.9507C1.29485 56.3085 1.63395 56.5993 2.02715 56.7992C2.42036 56.9991 2.85644 57.1022 3.29948 57.1003L3.51769 57.0991C3.97841 57.0964 4.43253 56.9801 4.83973 56.7605C5.24693 56.5409 5.5946 56.2247 5.85185 55.8401L12.5625 45.8532L35.3349 45.7334C35.5514 45.7325 35.7646 45.7819 35.9578 45.8776C36.151 45.9733 36.3188 46.1128 36.4481 46.285C36.5773 46.4572 36.6645 46.6575 36.7027 46.87C36.741 47.0826 36.7292 47.3016 36.6683 47.5099L28.5199 75.5067C28.3113 76.1994 28.36 76.9414 28.6568 77.5957C28.9536 78.25 29.4786 78.7723 30.1347 79.0661C30.7908 79.3599 31.5337 79.4052 32.226 79.1938C32.9183 78.9824 33.5132 78.5285 33.9008 77.916L54.7723 45.6592L68.5924 45.5865C72.7832 45.5645 76.9327 44.8718 80.9122 43.5314L82.1677 43.1111C85.2393 42.0774 85.2621 37.7444 82.2013 36.7374L80.9502 36.3247C76.9864 35.0314 72.8342 34.3832 68.6513 34.4046Z" fill="url(#paint1_linear_124_2)"/>
<path d="M68.6513 34.4046L54.8312 34.4773L34.2985 2.43814C33.9174 1.82969 33.3272 1.38202 32.6371 1.17788C31.947 0.973735 31.2036 1.02692 30.5444 1.32761C29.8851 1.62829 29.3546 2.15614 29.0509 2.8136C28.7471 3.47105 28.6907 4.21366 28.892 4.90416L36.7457 32.8169C36.8044 33.0245 36.8139 33.2434 36.7734 33.4564C36.733 33.6694 36.6437 33.8706 36.5126 34.0442C36.3815 34.2177 36.2122 34.359 36.018 34.4567C35.8238 34.5544 35.61 34.606 35.3935 34.6074L12.6212 34.7272L6.01536 24.8103C5.76215 24.4284 5.41779 24.1158 5.01289 23.9005C4.60798 23.6851 4.15506 23.5736 3.69434 23.5757L3.47613 23.5769C3.03262 23.5787 2.59477 23.6858 2.19871 23.8894C1.80265 24.0931 1.45973 24.3874 1.19824 24.7481C0.936754 25.1088 0.764186 25.5255 0.694777 25.964C0.625367 26.4024 0.661105 26.85 0.799041 27.2697L5.09993 40.3296L0.666758 53.4353C0.524541 53.8561 0.484018 54.3036 0.548522 54.7409C0.613027 55.1782 0.780715 55.5928 1.03778 55.9507C1.29485 56.3085 1.63395 56.5993 2.02715 56.7992C2.42036 56.9991 2.85644 57.1022 3.29948 57.1003L3.51769 57.0991C3.97841 57.0964 4.43253 56.9801 4.83973 56.7605C5.24693 56.5409 5.5946 56.2247 5.85185 55.8401L12.5625 45.8532L35.3349 45.7334C35.5514 45.7325 35.7646 45.7819 35.9578 45.8776C36.151 45.9733 36.3188 46.1128 36.4481 46.285C36.5773 46.4572 36.6645 46.6575 36.7027 46.87C36.741 47.0826 36.7292 47.3016 36.6683 47.5099L28.5199 75.5067C28.3113 76.1994 28.36 76.9414 28.6568 77.5957C28.9536 78.25 29.4786 78.7723 30.1347 79.0661C30.7908 79.3599 31.5337 79.4052 32.226 79.1938C32.9183 78.9824 33.5132 78.5285 33.9008 77.916L54.7723 45.6592L68.5924 45.5865C72.7832 45.5645 76.9327 44.8718 80.9122 43.5314L82.1677 43.1111C85.2393 42.0774 85.2621 37.7444 82.2013 36.7374L80.9502 36.3247C76.9864 35.0314 72.8342 34.3832 68.6513 34.4046Z" fill="url(#paint2_linear_124_2)"/>
<mask id="mask0_124_2" style="mask-type:alpha" maskUnits="userSpaceOnUse" x="0" y="1" width="85" height="79">
<path d="M68.6513 34.4046L54.8312 34.4773L34.2985 2.43814C33.9174 1.82969 33.3272 1.38202 32.6371 1.17788C31.947 0.973735 31.2036 1.02692 30.5444 1.32761C29.8851 1.62829 29.3546 2.15614 29.0509 2.8136C28.7471 3.47105 28.6907 4.21366 28.892 4.90416L36.7457 32.8169C36.8044 33.0245 36.8139 33.2434 36.7734 33.4564C36.733 33.6694 36.6437 33.8706 36.5126 34.0442C36.3815 34.2177 36.2122 34.359 36.018 34.4567C35.8238 34.5544 35.61 34.606 35.3935 34.6074L12.6212 34.7272L6.01536 24.8103C5.76215 24.4284 5.41779 24.1158 5.01289 23.9005C4.60798 23.6851 4.15506 23.5736 3.69434 23.5757L3.47613 23.5769C3.03262 23.5787 2.59477 23.6858 2.19871 23.8894C1.80265 24.0931 1.45973 24.3874 1.19824 24.7481C0.936754 25.1088 0.764186 25.5255 0.694777 25.964C0.625367 26.4024 0.661105 26.85 0.799041 27.2697L5.09993 40.3296L0.666758 53.4353C0.524541 53.8561 0.484018 54.3036 0.548522 54.7409C0.613027 55.1782 0.780715 55.5928 1.03778 55.9507C1.29485 56.3085 1.63395 56.5993 2.02715 56.7992C2.42036 56.9991 2.85644 57.1022 3.29948 57.1003L3.51769 57.0991C3.97841 57.0964 4.43253 56.9801 4.83973 56.7605C5.24693 56.5409 5.5946 56.2247 5.85185 55.8401L12.5625 45.8532L35.3349 45.7334C35.5514 45.7325 35.7646 45.7819 35.9578 45.8776C36.151 45.9733 36.3188 46.1128 36.4481 46.285C36.5773 46.4572 36.6645 46.6575 36.7027 46.87C36.741 47.0826 36.7292 47.3016 36.6683 47.5099L28.5199 75.5067C28.3113 76.1994 28.36 76.9414 28.6568 77.5957C28.9536 78.25 29.4786 78.7723 30.1347 79.0661C30.7908 79.3599 31.5337 79.4052 32.226 79.1938C32.9183 78.9824 33.5132 78.5285 33.9008 77.916L54.7723 45.6592L68.5924 45.5865C72.7832 45.5645 76.9327 44.8718 80.9122 43.5314L82.1677 43.1111C85.2393 42.0774 85.2621 37.7444 82.2013 36.7374L80.9502 36.3247C76.9864 35.0314 72.8342 34.3832 68.6513 34.4046Z" fill="url(#paint3_linear_124_2)"/>
</mask>
<g mask="url(#mask0_124_2)">
<path fill-rule="evenodd" clip-rule="evenodd" d="M51.9335 39.0158C51.3388 38.5352 50.1424 38.0264 49.0192 37.7184C47.8764 37.405 45.826 37.8371 46.3276 36.7547V36.7547C46.5016 36.3795 46.762 35.5556 46.8594 34.5353C46.9568 33.515 46.8973 32.2653 45.4207 30.825C43.6615 29.1087 41.8889 28.8102 39.7919 29.8764C38.5553 30.5051 38.163 31.1845 38.1549 32.7119C38.15 33.6559 38.1905 33.6759 38.8816 33.0649C40.4481 31.6801 42.188 32.7467 41.5439 34.6975C40.6602 37.3756 35.3569 34.5419 35.3734 31.4001C35.401 26.1705 41.5448 23.6397 45.9777 27.0321C47.279 28.0279 48.5025 30.5655 48.5054 32.2739C48.5076 33.6015 49.0478 33.9639 49.464 32.9171C49.5989 32.5783 49.7118 31.4849 49.715 30.4868C49.7217 28.3264 48.0229 25.1162 46.2075 23.86C43.5646 22.0314 39.7829 21.4563 36.4169 22.3709C34.2001 22.9737 31.3272 25.9242 30.6299 28.3144C29.4011 32.5252 31.4899 37.1677 35.5023 39.1442L36.6653 39.7167L35.6959 40.2061C35.1631 40.4755 33.9643 41.4122 33.0324 42.2884C28.4082 46.6339 29.5071 53.8451 35.2397 56.7744C37.2797 57.8169 41.3576 58.1007 44.2085 56.6161C47.4963 54.904 49.5803 51.8967 49.6133 48.8169C49.6472 45.6323 48.6925 44.9242 48.2824 47.8302C47.7673 51.481 44.9289 53.9269 41.1592 53.9684C37.0329 54.0135 34.0315 49.5281 35.8761 46.0727C36.659 44.6062 39.0873 43.471 40.4568 43.9318C41.6962 44.3485 42.0365 46.0042 41.0471 46.8069C40.4819 47.2653 39.8216 47.203 39.2348 46.7041L38.0846 46.0642L38.0787 47.1777C38.0709 48.6627 40.0333 50.2928 41.8183 50.2834C43.3528 50.2754 45.6179 48.892 46.3309 47.5276C46.9973 46.2521 46.9888 44.248 46.3112 42.9535V42.9535C46.0598 42.4732 46.4052 41.8911 46.9496 41.8775L47.6642 41.8597C48.8825 41.8296 50.0844 41.498 51.0108 40.9362C52.5829 39.9832 52.7363 39.6641 51.9335 39.0158Z" fill="url(#paint4_linear_124_2)"/>
</g>
<defs>
<linearGradient id="paint0_linear_124_2" x1="42.7309" y1="3.03999" x2="43.1317" y2="79.2631" gradientUnits="userSpaceOnUse">
<stop stop-color="#DCC26B"/>
<stop offset="0.468626" stop-color="#EADC9A" stop-opacity="0.85"/>
<stop offset="1" stop-color="#BC973C"/>
</linearGradient>
<linearGradient id="paint1_linear_124_2" x1="42.7309" y1="3.03999" x2="43.1317" y2="79.2631" gradientUnits="userSpaceOnUse">
<stop stop-color="#DCC26B"/>
<stop offset="0.468626" stop-color="#EADC9A" stop-opacity="0.85"/>
<stop offset="1" stop-color="#BC973C"/>
</linearGradient>
<linearGradient id="paint2_linear_124_2" x1="42.776" y1="-5.52424" x2="43.2493" y2="84.4802" gradientUnits="userSpaceOnUse">
<stop stop-color="#FFD700" stop-opacity="0.1"/>
<stop offset="0.304573" stop-color="#FFC107" stop-opacity="0.25"/>
<stop offset="0.69302" stop-color="#FFA500" stop-opacity="0.4"/>
<stop offset="1" stop-color="#B8860B"/>
</linearGradient>
<linearGradient id="paint3_linear_124_2" x1="42.7309" y1="3.03999" x2="43.1317" y2="79.2631" gradientUnits="userSpaceOnUse">
<stop stop-color="#DCC26B"/>
<stop offset="0.468626" stop-color="#EADC9A" stop-opacity="0.85"/>
<stop offset="1" stop-color="#BC973C"/>
</linearGradient>
<linearGradient id="paint4_linear_124_2" x1="51.8295" y1="39.7288" x2="30.2019" y2="39.6148" gradientUnits="userSpaceOnUse">
<stop stop-color="white"/>
<stop offset="0.468626" stop-color="white" stop-opacity="0.85"/>
<stop offset="1" stop-color="white"/>
</linearGradient>
</defs>
</svg>
