<svg width="1215" height="565" viewBox="0 0 1215 565" fill="none" xmlns="http://www.w3.org/2000/svg">
<path d="M1214.5 547.48L763 561.98C634 573.48 634 463.98 718.5 474.48H1054C1174 478.08 1196.5 454.98 1196.5 422.48C1196.5 353.79 989.279 412.621 887.557 395.026C873.056 392.517 858.414 390.184 843.763 391.571C765.197 399.003 644.908 407.543 654 302.98C662.302 207.513 809.568 223.075 913.731 237.838C930.34 240.191 947.146 237.875 963.659 234.922C1055.02 218.584 1193 266.31 1193 201.48C1193 141.877 1137 145.48 844.5 156.48C610.5 165.28 627 174.98 529 97.48C402.098 -2.87561 116.5 -78.02 -21.5 161.48" stroke="#FFE1C3" stroke-width="3" stroke-dasharray="20 10"/>
</svg>
