<svg width="34" height="36" viewBox="0 0 34 36" fill="none" xmlns="http://www.w3.org/2000/svg">
<path fill-rule="evenodd" clip-rule="evenodd" d="M17.0884 0.480469H16.9116C15.3833 0.480469 14.11 0.480469 13.1002 0.615409C12.0326 0.757095 11.0687 1.07083 10.2952 1.8383C9.52 2.60746 9.2038 3.56384 9.061 4.62143C8.925 5.62505 8.925 6.89011 8.925 8.40481V8.53637C5.4893 8.6477 3.4255 9.04577 1.9924 10.4694C-2.02656e-07 12.4446 0 15.6258 0 21.9865C0 28.3472 -2.02656e-07 31.5284 1.9924 33.5036C3.9848 35.4788 7.1893 35.4805 13.6 35.4805H20.4C26.8107 35.4805 30.0169 35.4805 32.0076 33.5036C33.9983 31.5267 34 28.3472 34 21.9865C34 15.6258 34 12.4446 32.0076 10.4694C30.5745 9.04577 28.5107 8.6477 25.075 8.53637V8.40481C25.075 6.89011 25.075 5.62505 24.939 4.62312C24.7962 3.56384 24.48 2.60746 23.7048 1.83999C22.9313 1.07083 21.9674 0.757095 20.8998 0.615409C19.89 0.480469 18.615 0.480469 17.0884 0.480469ZM22.525 8.49589V8.49252C22.525 6.86649 22.5216 5.77348 22.4128 4.95878C22.3057 4.18119 22.1238 3.84722 21.9028 3.62794C21.6818 3.40866 21.3452 3.22818 20.5598 3.12191C19.7404 3.01396 18.6388 3.01059 17 3.01059C15.3612 3.01059 14.2596 3.01396 13.4385 3.1236C12.6548 3.22818 12.3182 3.40866 12.0972 3.62963C11.8762 3.85059 11.6943 4.18119 11.5872 4.95878C11.4801 5.77348 11.475 6.86649 11.475 8.49252V8.49589C12.1403 8.49364 12.8486 8.49252 13.6 8.49252H20.4C21.1503 8.49252 21.8586 8.49364 22.525 8.49589ZM25.5 13.5528C25.5 14.0001 25.3209 14.4291 25.0021 14.7455C24.6833 15.0618 24.2509 15.2395 23.8 15.2395C23.3491 15.2395 22.9167 15.0618 22.5979 14.7455C22.2791 14.4291 22.1 14.0001 22.1 13.5528C22.1 13.1054 22.2791 12.6764 22.5979 12.36C22.9167 12.0437 23.3491 11.866 23.8 11.866C24.2509 11.866 24.6833 12.0437 25.0021 12.36C25.3209 12.6764 25.5 13.1054 25.5 13.5528ZM10.2 15.2395C10.6509 15.2395 11.0833 15.0618 11.4021 14.7455C11.7209 14.4291 11.9 14.0001 11.9 13.5528C11.9 13.1054 11.7209 12.6764 11.4021 12.36C11.0833 12.0437 10.6509 11.866 10.2 11.866C9.74913 11.866 9.31673 12.0437 8.99792 12.36C8.67911 12.6764 8.5 13.1054 8.5 13.5528C8.5 14.0001 8.67911 14.4291 8.99792 14.7455C9.31673 15.0618 9.74913 15.2395 10.2 15.2395Z" fill="url(#paint0_linear_114_274)"/>
<defs>
<linearGradient id="paint0_linear_114_274" x1="17" y1="1.39351" x2="17" y2="35.4805" gradientUnits="userSpaceOnUse">
<stop stop-color="white"/>
<stop offset="0.468626" stop-color="white" stop-opacity="0.85"/>
<stop offset="1" stop-color="white"/>
</linearGradient>
</defs>
</svg>
