<svg width="37" height="36" viewBox="0 0 37 36" fill="none" xmlns="http://www.w3.org/2000/svg">
<path d="M15.0868 35.1927C18.5524 33.8313 17.7931 30.0777 16.0408 27.705C14.308 25.2739 11.9132 23.6013 9.499 21.987C7.77608 20.903 6.23798 19.5504 4.94309 17.9806C4.39793 17.3388 3.28816 16.1524 4.4174 15.9191C5.56612 15.6857 7.55203 16.8137 8.56446 17.2416C10.3362 17.9806 12.0885 18.8364 13.7239 19.8477L15.6904 16.5414C12.6531 14.5382 8.75915 12.7684 5.13778 12.2433C3.07399 11.9321 0.893381 12.36 0.192471 14.5966C-0.430561 16.522 0.562396 18.4668 1.69164 19.9838C4.35899 23.5429 8.50605 25.2544 11.6017 28.3273C12.2637 28.9691 13.062 29.7276 13.4514 30.6223C13.8602 31.478 13.7629 31.5363 12.8478 31.5363C10.4336 31.5363 7.41574 29.6498 5.4493 28.4051L3.48286 31.7114C6.46172 33.5396 11.446 36.3985 15.0868 35.1927ZM36.6787 4.85278C37.1071 4.42491 37.1071 3.72476 36.6787 3.31633L34.1477 0.788009C33.9442 0.59078 33.6719 0.480469 33.3884 0.480469C33.1049 0.480469 32.8325 0.59078 32.629 0.788009L30.6431 2.77177L34.6928 6.81709M17.5205 15.8802V19.9255H21.5702L33.5441 7.96456L29.4944 3.91924L17.5205 15.8802Z" fill="url(#paint0_linear_114_248)"/>
<defs>
<linearGradient id="paint0_linear_114_248" x1="18.5" y1="1.39351" x2="18.5" y2="35.4805" gradientUnits="userSpaceOnUse">
<stop stop-color="white"/>
<stop offset="0.468626" stop-color="white" stop-opacity="0.85"/>
<stop offset="1" stop-color="white"/>
</linearGradient>
</defs>
</svg>
